# xmcd CD database file
#
# Track frame offsets:
#	150
#	13576
#	27562
#	43803
#	56017
#	69124
#	82136
#	95585
#	110807
#	125558
#	139640
#	155628
#	169292
#	184379
#	197546
#	210193
#	229680
#	248440
#	269054
#	281318
#
# Disc length: 3929 seconds
#
# Revision: 0
# Processed by: cddbd v1.5.1PL2 Copyright (c) Steve Scherf et al.
# Submitted via: CDex 1.51
#
DISCID=220f5714
DTITLE=Various Artist - Talking and Preaching Trombones
DYEAR=1997
DGENRE=Jazz
TTITLE0=Black Snake Blues (L. Johnson - V. Spivey)
TTITLE1=Ory's Creole Trombone (E. Ory)
TTITLE2=Rainy Weather Blues (G. Brooks)
TTITLE3=New Orleans Shout (J. Oliver - D. Nelson)
TTITLE4=Sweet Chariot (D. Ellington - I. Mills)
TTITLE5=Black and Tan Fantasy (D. Ellington - B. Miley)
TTITLE6=Fidgety Feet (D. J. La Rocca - L. Shields)
TTITLE7=Walk that Thing (C. Johnson)
TTITLE8=Swing Out (J.C. Hiddinbotham - H. Allen)
TTITLE9=St-Louis Blues (W. C. Handy)
TTITLE10=Higginbotham Blues (J. C. Higginbotham)
TTITLE11=Sweet Sue, Just You (Harris - Young)
TTITLE12=Dickie Wells Blues (D. Wells)
TTITLE13=Tush (D. Wells)
TTITLE14=Old Man Blues (D. Ellington - I. Mills)
TTITLE15=Up in Sidney's Flat (S. Bechet)
TTITLE16=Big City Blues (E. Hall)
TTITLE17=Bottom Blues (Young)
TTITLE18=Think of Me Little Daddy (Whitman)
TTITLE19=Behind the Eight Bar (K. Kersey)
EXTD=YEAR: 1997
EXTT0=
EXTT1=
EXTT2=
EXTT3=
EXTT4=
EXTT5=
EXTT6=
EXTT7=
EXTT8=
EXTT9=
EXTT10=
EXTT11=
EXTT12=
EXTT13=
EXTT14=
EXTT15=
EXTT16=
EXTT17=
EXTT18=
EXTT19=
PLAYORDER=
